PathFileType	4	(X/Y/Z)	/home/mitkof6/dev/sinergia_osimrl/data/02761/02761_PRE/experimental_data/task.trc
DataRate	CameraRate	NumFrames	NumMarkers	Units	OrigDataRate	OrigDataStartFrame	OrigNumFrames
100.000000	100.000000	4	43	mm	100.000000	265	354
Frame#	Time	C7			CLAV			LANK			LASI			LBHD			LELB			LFHD			LFIN			LHEE			LKNE			LMED			LMET			LMIF			LPSI			LSHO			LTHI			LTIB			LTOE			LTTU			LWRA			LWRB			RANK			RASI			RBAK			RBHD			RELB			RFHD			RFIN			RHEE			RKNE			RMED			RMET			RMIF			RPSI			RSHO			RTHI			RTIB			RTOE			RTTU			RWRA			RWRB			STRN			T10			
		X1	Y1	Z1	X2	Y2	Z2	X3	Y3	Z3	X4	Y4	Z4	X5	Y5	Z5	X6	Y6	Z6	X7	Y7	Z7	X8	Y8	Z8	X9	Y9	Z9	X10	Y10	Z10	X11	Y11	Z11	X12	Y12	Z12	X13	Y13	Z13	X14	Y14	Z14	X15	Y15	Z15	X16	Y16	Z16	X17	Y17	Z17	X18	Y18	Z18	X19	Y19	Z19	X20	Y20	Z20	X21	Y21	Z21	X22	Y22	Z22	X23	Y23	Z23	X24	Y24	Z24	X25	Y25	Z25	X26	Y26	Z26	X27	Y27	Z27	X28	Y28	Z28	X29	Y29	Z29	X30	Y30	Z30	X31	Y31	Z31	X32	Y32	Z32	X33	Y33	Z33	X34	Y34	Z34	X35	Y35	Z35	X36	Y36	Z36	X37	Y37	Z37	X38	Y38	Z38	X39	Y39	Z39	X40	Y40	Z40	X41	Y41	Z41	X42	Y42	Z42	X43	Y43	Z43	

266	2.65	1053.133666992188	1194.293823242188	-344.1566162109372	1164.370239257812	1127.10498046875	-335.6945495605466	746.6881103515625	170.7926635742189	-470.7495422363281	1132.385986328125	790.9970703125001	-438.0899658203123	1068.78564453125	1317.97509765625	-388.5308837890622	1141.27734375	923.8269653320314	-548.0021362304685	1194.892211914062	1351.285278320312	-388.2250061035153	1298.203002929688	699.5458984375001	-614.9624023437499	710.17822265625	200.3617706298829	-426.1440734863281	1029.641235351562	413.3210449218751	-475.8901367187499	769.13623046875	160.9271697998048	-399.7187805175781	748.7110595703125	68.45703887939464	-483.0618286132812	785.3121948242188	116.921127319336	-440.71875	1003.698425292969	845.6138916015626	-378.9042663574217	1108.056762695312	1174.487548828125	-469.4850158691403	1045.59423828125	549.2218017578126	-518.9392089843749	876.4102783203125	300.3807373046876	-527.0416259765624	774.8433837890625	55.96715545654307	-450.0859985351562	1032.040649414062	315.675506591797	-434.3895874023437	1241.521850585938	718.1123046875001	-584.5977172851561	1299.262329101562	751.3727416992189	-566.7758178710936	1085.45849609375	64.96170806884771	-279.0621948242188	1136.794189453125	802.9649658203125	-238.2070159912108	1013.387939453125	1068.3642578125	-268.1021728515623	1043.288330078125	1291.837524414062	-281.887512207031	1008.658264160156	929.1566162109375	-172.3885192871092	1189.229736328125	1332.838012695312	-262.7474670410153	1155.471435546875	735.2075805664062	-90.12884521484359	1043.423461914062	50.09360504150398	-328.6014709472656	1190.906494140625	427.7670593261719	-242.4899139404296	1116.798461914062	76.89979553222663	-348.9675903320312	1168.334350585938	23.8731307983399	-248.1945037841797	1145.82666015625	73.4213943481446	-303.2369995117188	997.3618774414062	851.1697998046876	-291.5426940917967	1070.401489257812	1180.590576171875	-222.4182128906247	1166.60791015625	558.0718383789062	-176.4139251708983	1131.460327148438	223.7964019775391	-213.4764556884765	1198.364379882812	36.63979721069342	-279.3607788085938	1223.781494140625	349.8156127929688	-300.5787963867187	1101.971801757812	767.2794799804688	-103.1271896362303	1150.192260742188	777.6749267578125	-144.9482421874998	1198.085815429688	991.1272583007814	-338.6405639648435	1022.657409667969	943.7762451171876	-350.452209472656	
267	2.66	1063.649291992188	1194.846923828125	-342.3467102050778	1174.743530273438	1127.314453125	-334.6808776855466	763.387939453125	175.2508087158204	-468.9595031738281	1140.894897460938	790.9876098632814	-437.4740600585936	1078.951538085938	1318.349609375	-386.7708740234372	1149.3056640625	924.1038208007814	-546.640197753906	1204.955444335938	1352.078125	-386.515930175781	1302.363525390625	697.6549072265626	-615.3441772460936	727.1090087890625	204.5567169189454	-423.9627075195312	1049.14990234375	411.5201110839845	-474.6414184570311	785.6569213867188	164.4618682861329	-397.8779907226562	765.1437377929688	73.51816558837902	-482.8880004882812	802.0534057617188	120.9357070922853	-439.7319946289062	1012.332275390625	845.5726318359376	-377.5996704101561	1118.02099609375	1174.996459960938	-468.0255432128903	1059.90869140625	547.5702514648439	-517.6696777343749	896.0029296875	301.2606506347657	-525.6390380859374	791.6312866210938	60.50384902954112	-450.5668640136719	1052.2822265625	314.1414184570314	-433.0283203124999	1246.319458007812	716.9776000976564	-584.3721313476561	1304.695434570312	749.4287109375001	-567.1249389648436	1086.142944335938	66.48804473876959	-278.2587890625	1145.928466796875	803.623779296875	-237.500778198242	1024.439453125	1069.018310546875	-265.6390380859373	1053.659301757812	1291.909301757812	-280.1658020019528	1021.032531738281	929.5078735351562	-170.159713745117	1199.464599609375	1333.368286132812	-261.0570983886716	1169.52392578125	736.537841796875	-88.18933868408186	1043.772094726562	52.42651748657234	-327.8335266113281	1195.896118164062	427.3439636230469	-240.6173095703124	1117.50439453125	78.28268432617195	-348.1146850585938	1168.454345703125	23.81066894531255	-247.8294067382812	1146.573608398438	74.19952392578132	-302.4677429199219	1006.706970214844	851.9972534179689	-290.5240478515623	1081.869506835938	1181.122680664062	-220.6815032958982	1172.394653320312	557.8568115234375	-174.4018249511718	1133.54638671875	224.6652374267579	-212.307876586914	1198.557495117188	36.62477493286139	-278.9215087890625	1229.265380859375	349.4628601074219	-297.8217468261718	1115.4326171875	768.2319946289062	-101.0621795654295	1163.839965820312	778.9107666015625	-143.0810089111326	1207.874633789062	991.1561889648439	-338.1698913574216	1032.123168945312	944.6268920898439	-348.8707580566404	
268	2.67	1074.052490234375	1195.493774414062	-340.627746582031	1184.94482421875	1127.512451171875	-333.8741760253904	781.0030517578125	179.0575714111329	-466.9524230957031	1149.256225585938	791.2458496093751	-436.9320068359373	1089.095581054688	1318.839477539062	-385.1073303222653	1157.282592773438	924.4905395507814	-545.315002441406	1215.022216796875	1352.896606445312	-384.8916320800778	1306.412475585938	695.8699340820314	-615.6123657226561	744.582275390625	207.7154998779298	-421.6072082519531	1068.8076171875	410.4569091796876	-473.2911682128905	803.0057373046875	167.6229248046876	-395.8269653320312	783.56640625	78.01928710937511	-482.5685424804688	820.2077026367188	124.7364425659181	-438.5801086425781	1020.756408691406	845.7004394531251	-376.2145385742186	1127.6748046875	1175.591064453125	-466.6938171386716	1073.573364257812	546.4764404296876	-516.3101196289061	916.0325317382812	302.5318603515626	-523.9951171874999	810.3802490234375	64.70744323730479	-450.7757568359375	1072.802368164062	313.3754882812501	-431.3905639648437	1251.020629882812	716.0278930664064	-584.1320800781249	1310.010498046875	747.5734863281251	-567.3615722656249	1086.778076171875	67.89235687255865	-277.7218627929688	1154.775390625	804.250244140625	-236.819366455078	1035.419799804688	1069.774169921875	-263.1739501953123	1064.010131835938	1292.079223632812	-278.5372924804685	1033.530517578125	929.8936157226562	-167.8281860351561	1209.702392578125	1333.898193359375	-259.466369628906	1183.931518554688	738.064208984375	-86.4105148315428	1043.789916992188	54.68398284912116	-327.3094177246094	1200.139282226562	426.8186645507813	-239.0381469726562	1118.237426757812	79.52761077880866	-347.4591369628906	1168.510375976562	23.7685165405274	-247.5947265625	1147.27978515625	74.90838623046882	-301.8926391601562	1015.812561035156	852.7971191406251	-289.4927978515623	1093.342041015625	1181.706665039062	-219.0330657958982	1176.716796875	557.1063842773438	-172.6745605468749	1134.985473632812	225.5180664062501	-211.4600067138671	1198.724365234375	36.6228981018067	-278.5775146484375	1234.215209960938	349.0479431152344	-295.2643432617187	1129.251220703125	769.2702026367188	-99.06632995605452	1177.646484375	780.2269897460938	-141.4205322265623	1217.371826171875	991.1547851562501	-337.9081420898435	1041.354370117188	945.5679931640626	-347.3524780273435	
269	2.68	1084.336303710938	1196.2373046875	-339.0108642578122	1194.981567382812	1127.733276367188	-333.242004394531	799.5066528320312	182.0171203613282	-464.7723388671874	1157.511962890625	791.7745361328126	-436.3802185058592	1099.211669921875	1319.466430664062	-383.5400695800778	1165.160888671875	924.9713745117189	-544.0476074218748	1225.086181640625	1353.745483398438	-383.3621520996091	1310.40185546875	694.2207641601564	-615.7635498046874	762.619384765625	209.7322692871095	-419.1381225585937	1088.543579101562	410.168182373047	-471.8947143554686	821.1713256835938	170.2537689208985	-393.6024169921874	803.8034057617188	81.74145507812511	-482.0091552734375	839.6703491210938	128.081268310547	-437.2373657226562	1029.061157226562	846.0683593750001	-374.7940368652342	1137.034912109375	1176.268310546875	-465.4933776855466	1086.609252929688	545.9454345703126	-514.8630371093749	936.3217163085938	304.2367248535157	-522.0930786132811	830.879638671875	68.34516143798838	-450.6065979003906	1093.50732421875	313.4024658203126	-429.6023254394531	1255.650756835938	715.2819824218751	-583.8818359374999	1315.234741210938	745.8563232421876	-567.4968872070311	1087.364013671875	69.17173767089849	-277.3795776367188	1163.394409179688	804.8754272460938	-236.0999908447264	1046.29248046875	1070.640380859375	-260.767395019531	1074.3310546875	1292.373657226562	-277.0007019042966	1046.178466796875	930.3114624023438	-165.3776855468748	1219.944213867188	1334.437744140625	-257.9783020019528	1198.678100585938	739.7500610351562	-84.81516265869124	1043.578125	56.83480453491218	-326.9688110351562	1203.899780273438	426.2781372070313	-237.7866058349609	1118.97119140625	80.62905120849616	-346.96923828125	1168.524169921875	23.74613189697271	-247.4649658203125	1147.9375	75.54350280761726	-301.4859313964844	1024.736083984375	853.6093139648439	-288.4525451660155	1104.767944335938	1182.348022460938	-217.4813690185544	1179.944213867188	556.0097045898438	-171.2866973876952	1136.111694335938	226.3343200683594	-210.8874969482421	1198.8701171875	36.63198471069342	-278.3195495605469	1238.6396484375	348.5891113281251	-293.1145935058593	1143.443237304688	770.3834228515625	-97.12699890136702	1191.577270507812	781.5855102539062	-139.9762725830076	1226.624877929688	991.1758422851564	-337.7742004394529	1050.392211914062	946.6050415039064	-345.921936035156	
